<svg width="691.000000" height="384.000000" viewBox="0 0 691 384" fill="none" xmlns="http://www.w3.org/2000/svg" xmlns:xlink="http://www.w3.org/1999/xlink">
	<desc>
			Created with Pixso.
	</desc>
	<defs/>
	<line id="Line 17" x1="25.127991" y1="-0.222046" x2="194.313416" y2="97.457153" stroke="#FFFFFF" stroke-opacity="1.000000" stroke-width="1.000000"/>
	<line id="Line 19" x1="532.004272" y1="291.989746" x2="690.089355" y2="383.260254" stroke="#FFFFFF" stroke-opacity="1.000000" stroke-width="1.000000"/>
	<path id="your personal" d="M37.13 197.59Q37.69 196.35 37.69 194.68L37.69 193.96Q37.69 192.29 37.13 191.04Q36.67 190.02 35.89 189.39Q35.72 189.25 35.52 189.12Q35.33 189.01 35.13 188.91Q34.23 188.46 33.11 188.46Q32.1 188.46 31.26 188.84Q30.98 188.97 30.72 189.13Q30.54 189.25 30.38 189.38Q29.58 190.02 29.11 191.06Q28.54 192.32 28.54 193.96L28.54 194.78Q28.56 196.39 29.13 197.61Q29.58 198.58 30.33 199.19Q30.52 199.35 30.74 199.49Q30.98 199.64 31.23 199.76Q32.08 200.15 33.13 200.15Q34.31 200.15 35.24 199.67Q35.39 199.59 35.53 199.5Q35.71 199.38 35.87 199.26Q36.66 198.63 37.13 197.59ZM151.39 193.56Q152.27 194.37 154.2 194.93Q155.74 195.37 156.32 195.83Q156.53 195.99 156.66 196.19Q156.91 196.58 156.91 197.12Q156.91 197.59 156.71 197.95Q156.55 198.23 156.27 198.44Q155.64 198.93 154.45 198.93Q153.18 198.93 152.42 198.33Q152.1 198.08 151.92 197.75Q151.66 197.3 151.66 196.7L150.15 196.7Q150.15 197.3 150.35 197.82Q150.48 198.16 150.7 198.47Q150.71 198.48 150.71 198.49Q151.26 199.26 152.27 199.7Q152.46 199.79 152.66 199.86Q153.5 200.15 154.45 200.15Q156.26 200.15 157.34 199.32Q157.86 198.92 158.12 198.39Q158.42 197.82 158.42 197.1Q158.42 196.26 158.05 195.63Q158.04 195.61 158.03 195.6Q157.64 194.96 156.84 194.48Q156.04 194 154.62 193.6Q153.2 193.2 152.61 192.72Q152.25 192.42 152.11 192.04Q152.02 191.81 152.02 191.54Q152.02 191 152.26 190.61Q152.41 190.37 152.64 190.19Q153.27 189.7 154.38 189.7Q155.57 189.7 156.23 190.29Q156.41 190.45 156.54 190.64Q156.88 191.16 156.88 191.91L158.39 191.91Q158.39 191.43 158.26 190.99Q158.14 190.56 157.89 190.17Q157.77 189.99 157.64 189.83Q157.18 189.27 156.47 188.92Q155.55 188.46 154.38 188.46Q152.77 188.46 151.73 189.23Q151.66 189.28 151.58 189.34Q151 189.82 150.73 190.44Q150.51 190.95 150.51 191.57Q150.51 192.15 150.72 192.64Q150.94 193.15 151.39 193.56ZM176.76 197.59Q177.33 196.35 177.33 194.68L177.33 193.96Q177.33 192.29 176.76 191.04Q176.31 190.02 175.53 189.39Q175.35 189.25 175.16 189.12Q174.97 189.01 174.77 188.91Q173.87 188.46 172.75 188.46Q171.74 188.46 170.9 188.84Q170.62 188.97 170.36 189.13Q170.18 189.25 170.02 189.38Q169.22 190.02 168.75 191.06Q168.18 192.32 168.18 193.96L168.18 194.78Q168.19 196.39 168.77 197.61Q169.22 198.58 169.97 199.19Q170.16 199.35 170.38 199.49Q170.62 199.64 170.87 199.76Q171.72 200.15 172.76 200.15Q173.95 200.15 174.88 199.67Q175.03 199.59 175.17 199.5Q175.35 199.38 175.51 199.26Q176.3 198.63 176.76 197.59ZM17.75 188.62L14.78 194.33L11.83 188.62L10.11 188.62L14.03 195.75L14.03 200L15.53 200L15.53 195.75L19.46 188.62L17.75 188.62ZM56.19 196.35L56.19 188.62L54.68 188.62L54.68 196.33Q54.68 197.44 54.14 198.1Q54.07 198.17 54 198.25Q53.95 198.29 53.9 198.34Q53.24 198.93 52.05 198.93Q50.91 198.93 50.25 198.36Q50.18 198.31 50.12 198.24Q50.04 198.17 49.97 198.08Q49.44 197.42 49.44 196.32L49.44 188.62L47.95 188.62L47.95 196.37Q47.96 197.69 48.58 198.58Q48.79 198.89 49.08 199.14Q49.2 199.25 49.33 199.35Q50.39 200.15 52.05 200.15L52.45 200.14Q53.91 200.03 54.85 199.28Q55.02 199.14 55.17 198.99Q55.48 198.68 55.69 198.32Q56.18 197.48 56.19 196.35ZM68.29 195.39L70.97 195.39L73.43 200L75.04 200L75.04 199.9L72.37 195.07Q73.23 194.74 73.78 194.13Q73.88 194.02 73.97 193.89Q74.13 193.67 74.25 193.43Q74.54 192.81 74.54 192.04Q74.54 190.74 73.91 189.92Q73.74 189.69 73.51 189.5Q72.47 188.62 70.55 188.62L66.79 188.62L66.79 200L68.29 200L68.29 195.39ZM98.59 200L98.59 195.54L101.27 195.54Q103.2 195.54 104.23 194.65Q104.48 194.44 104.66 194.18Q105.27 193.36 105.27 192.1Q105.27 191.08 104.82 190.33Q104.58 189.91 104.21 189.57Q104.17 189.54 104.14 189.51Q103.09 188.62 101.28 188.62L97.09 188.62L97.09 200L98.59 200ZM116.92 194.74L121.85 194.74L121.85 193.51L116.92 193.51L116.92 189.85L122.57 189.85L122.57 188.62L115.42 188.62L115.42 200L122.65 200L122.65 198.77L116.92 198.77L116.92 194.74ZM134.25 195.39L136.92 195.39L139.39 200L141 200L141 199.9L138.33 195.07Q139.19 194.74 139.74 194.13Q139.84 194.02 139.93 193.89Q140.09 193.67 140.21 193.43Q140.5 192.81 140.5 192.04Q140.5 190.74 139.87 189.92Q139.7 189.69 139.47 189.5Q138.43 188.62 136.51 188.62L132.75 188.62L132.75 200L134.25 200L134.25 195.39ZM195.05 200L196.56 200L196.56 188.62L195.07 188.62L195.07 197.43L189.33 188.62L187.82 188.62L187.82 200L189.33 200L189.33 191.23L195.05 200ZM208.05 200L209.12 197.03L213.89 197.03L214.97 200L216.51 200L212.16 188.62L210.85 188.62L206.5 200L208.05 200ZM233.18 198.77L227.79 198.77L227.79 188.62L226.28 188.62L226.28 200L233.18 200L233.18 198.77ZM35.38 190.84Q36.2 191.92 36.2 193.94L36.2 194.78Q36.17 196.76 35.38 197.82Q35.07 198.23 34.66 198.48Q34.02 198.88 33.13 198.88Q32.34 198.88 31.73 198.54Q31.23 198.27 30.86 197.76Q30.03 196.64 30.03 194.68L30.03 193.84Q30.06 191.92 30.87 190.84Q31.23 190.36 31.71 190.09Q32.31 189.75 33.11 189.75Q33.98 189.75 34.62 190.14Q35.05 190.4 35.38 190.84ZM175.02 190.84Q175.84 191.92 175.84 193.94L175.84 194.78Q175.81 196.76 175.01 197.82Q174.71 198.23 174.3 198.48Q173.66 198.88 172.76 198.88Q171.97 198.88 171.37 198.54Q170.87 198.27 170.5 197.76Q169.67 196.64 169.67 194.68L169.67 193.84Q169.69 191.92 170.51 190.84Q170.87 190.36 171.35 190.09Q171.95 189.75 172.75 189.75Q173.62 189.75 174.26 190.14Q174.69 190.4 175.02 190.84ZM70.6 194.17L68.29 194.17L68.29 189.85L70.59 189.85Q71.78 189.86 72.41 190.43Q72.52 190.53 72.62 190.65Q73.04 191.18 73.04 192.04Q73.04 192.67 72.76 193.13Q72.61 193.38 72.38 193.59Q72.34 193.62 72.29 193.66Q71.65 194.17 70.6 194.17ZM101.28 194.32L98.59 194.32L98.59 189.85L101.37 189.85Q102.38 189.88 103 190.38Q103.07 190.43 103.13 190.49Q103.31 190.66 103.44 190.87Q103.77 191.38 103.77 192.11Q103.77 192.98 103.34 193.52Q103.25 193.64 103.13 193.75Q102.48 194.32 101.28 194.32ZM136.56 194.17L134.25 194.17L134.25 189.85L136.55 189.85Q137.74 189.86 138.37 190.43Q138.48 190.53 138.58 190.65Q139 191.18 139 192.04Q139 192.67 138.72 193.13Q138.57 193.38 138.34 193.59Q138.3 193.62 138.25 193.66Q137.61 194.17 136.56 194.17ZM213.44 195.79L209.57 195.79L211.5 190.47L213.44 195.79Z" fill="#FFFFFF" fill-opacity="1.000000" fill-rule="evenodd"/>
	<mask id="mask844_18" mask-type="alpha" maskUnits="userSpaceOnUse" x="283.500000" y="149.000000" width="374.000000" height="145.500000">
		<path id="Rectangle 10" d="M283.5 149L657.5 149L657.5 294.5L535.5 294.5L283.5 149Z" fill="#C4C4C4" fill-opacity="1.000000" fill-rule="nonzero"/>
	</mask>
	<g mask="url(#mask844_18)">
		<path id="House" d="M298.58 212.21C316.44 212.21 329.4 226 329.4 248.1C329.4 270.18 316.44 283.96 298.58 283.96C280.72 283.96 267.76 270.18 267.76 248.1C267.76 226 280.72 212.21 298.58 212.21ZM461.13 230.64L452.95 230.64C452.13 223.75 445.71 219.71 437.27 219.71C427.99 219.71 421.85 224.64 421.85 231.32C421.85 238.82 430.17 241.53 435.35 242.89L442.45 244.82C449.67 246.71 462.09 250.96 462.09 264.03C462.09 275.35 452.95 284.21 436.85 284.21C421.85 284.21 412.59 276.46 411.77 265L420.49 265C421.17 272.89 428.53 276.6 436.85 276.6C446.53 276.6 453.92 271.53 453.92 263.89C453.92 256.96 447.35 254.35 439.99 252.32L431.42 249.85C420.49 246.71 413.67 241.14 413.67 231.71C413.67 220 424.17 212.21 437.53 212.21C451.03 212.21 460.76 220.09 461.13 230.64ZM207.89 283L199.46 283L199.46 213.18L207.89 213.18L207.89 244.28L245.14 244.28L245.14 213.18L253.6 213.18L253.6 283L245.14 283L245.14 251.78L207.89 251.78L207.89 283ZM389.41 258.71L389.41 213.18L397.85 213.18L397.85 259.39C397.85 273.71 387.16 284.21 370.73 284.21C354.28 284.21 343.59 273.71 343.59 259.39L343.59 213.18L352.03 213.18L352.03 258.71C352.03 268.96 359.06 276.32 370.73 276.32C382.38 276.32 389.41 268.96 389.41 258.71ZM518.68 283L476 283L476 213.18L518.14 213.18L518.14 220.68L484.44 220.68L484.44 244.28L515.94 244.28L515.94 251.78L484.44 251.78L484.44 275.5L518.68 275.5L518.68 283ZM298.58 276.03C311.26 276.03 321.22 266.21 321.22 248.1C321.22 229.96 311.26 220.14 298.58 220.14C285.9 220.14 275.94 229.96 275.94 248.1C275.94 266.21 285.9 276.03 298.58 276.03Z" fill="#FFFFFF" fill-opacity="1.000000" fill-rule="evenodd"/>
	</g>
	<mask id="mask844_20" mask-type="alpha" maskUnits="userSpaceOnUse" x="185.000000" y="187.000000" width="392.500000" height="145.500000">
		<path id="Rectangle 9" d="M577.5 332.5L185 332.5L185 187L325 187L577.5 332.5Z" fill="#C4C4C4" fill-opacity="1.000000" fill-rule="nonzero"/>
	</mask>
	<g mask="url(#mask844_20)">
		<path id="House" d="M298.58 212.21C316.44 212.21 329.4 226 329.4 248.1C329.4 270.18 316.44 283.96 298.58 283.96C280.72 283.96 267.76 270.18 267.76 248.1C267.76 226 280.72 212.21 298.58 212.21ZM461.13 230.64L452.95 230.64C452.13 223.75 445.71 219.71 437.27 219.71C427.99 219.71 421.85 224.64 421.85 231.32C421.85 238.82 430.17 241.53 435.35 242.89L442.45 244.82C449.67 246.71 462.09 250.96 462.09 264.03C462.09 275.35 452.95 284.21 436.85 284.21C421.85 284.21 412.59 276.46 411.77 265L420.49 265C421.17 272.89 428.53 276.6 436.85 276.6C446.53 276.6 453.92 271.53 453.92 263.89C453.92 256.96 447.35 254.35 439.99 252.32L431.42 249.85C420.49 246.71 413.67 241.14 413.67 231.71C413.67 220 424.17 212.21 437.53 212.21C451.03 212.21 460.76 220.09 461.13 230.64ZM207.89 283L199.46 283L199.46 213.18L207.89 213.18L207.89 244.28L245.14 244.28L245.14 213.18L253.6 213.18L253.6 283L245.14 283L245.14 251.78L207.89 251.78L207.89 283ZM389.41 258.71L389.41 213.18L397.85 213.18L397.85 259.39C397.85 273.71 387.16 284.21 370.73 284.21C354.28 284.21 343.59 273.71 343.59 259.39L343.59 213.18L352.03 213.18L352.03 258.71C352.03 268.96 359.06 276.32 370.73 276.32C382.38 276.32 389.41 268.96 389.41 258.71ZM518.68 283L476 283L476 213.18L518.14 213.18L518.14 220.68L484.44 220.68L484.44 244.28L515.94 244.28L515.94 251.78L484.44 251.78L484.44 275.5L518.68 275.5L518.68 283ZM298.58 276.03C311.26 276.03 321.22 266.21 321.22 248.1C321.22 229.96 311.26 220.14 298.58 220.14C285.9 220.14 275.94 229.96 275.94 248.1C275.94 266.21 285.9 276.03 298.58 276.03Z" fill="#FFFFFF" fill-opacity="1.000000" fill-rule="evenodd"/>
	</g>
	<mask id="mask844_22" mask-type="alpha" maskUnits="userSpaceOnUse" x="0.000000" y="84.000000" width="398.500000" height="145.500000">
		<path id="Rectangle 8" d="M398.5 229.5L0 229.5L0 84L146 84L398.5 229.5Z" fill="#C4C4C4" fill-opacity="1.000000" fill-rule="nonzero"/>
	</mask>
	<g mask="url(#mask844_22)">
		<path id="Dream" d="M67.28 139.96C67.28 161.78 55.28 175 34 175L12.46 175L12.46 105.18L34.96 105.18C55.28 105.18 67.28 118.28 67.28 139.96ZM89.89 175L81.46 175L81.46 105.18L105.03 105.18C121.39 105.18 128.78 114.25 128.78 126.6C128.78 135.85 124.6 143.12 115.72 146.14L131.5 175L121.68 175L106.96 147.69C106.37 147.71 105.78 147.71 105.18 147.71L89.89 147.71L89.89 175ZM185.5 175L142.82 175L142.82 105.18L184.96 105.18L184.96 112.68L151.26 112.68L151.26 136.28L182.76 136.28L182.76 143.78L151.26 143.78L151.26 167.5L185.5 167.5L185.5 175ZM210.12 155.21L203.09 175L194.23 175L219.87 105.18L228.59 105.18L254.23 175L245.37 175L238.34 155.21L210.12 155.21ZM265.14 175L265.14 105.18L275.22 105.18L298.96 163.14L299.78 163.14L323.5 105.18L333.58 105.18L333.58 175L325.68 175L325.68 121.96L325 121.96L303.18 175L295.54 175L273.72 121.96L273.04 121.96L273.04 175L265.14 175ZM20.89 112.68L20.89 167.5L33.46 167.5C50.78 167.5 59.1 157 59.1 139.96C59.1 123.03 50.78 112.68 34.39 112.68L20.89 112.68ZM89.89 112.68L89.89 140.1L104.89 140.1C116.1 140.1 120.46 134.96 120.46 126.6C120.46 118.21 116.1 112.68 104.78 112.68L89.89 112.68ZM223.95 116.21L212.77 147.71L235.67 147.71L224.49 116.21L223.95 116.21Z" fill="#FFFFFF" fill-opacity="1.000000" fill-rule="evenodd"/>
	</g>
	<mask id="mask844_24" mask-type="alpha" maskUnits="userSpaceOnUse" x="146.999969" y="70.000000" width="367.000000" height="145.500000">
		<path id="Rectangle 7" d="M147 70L514 70L514 215.5L398.5 215.5L147 70Z" fill="#C4C4C4" fill-opacity="1.000000" fill-rule="nonzero"/>
	</mask>
	<g mask="url(#mask844_24)">
		<path id="Dream" d="M67.28 139.96C67.28 161.78 55.28 175 34 175L12.46 175L12.46 105.18L34.96 105.18C55.28 105.18 67.28 118.28 67.28 139.96ZM89.89 175L81.46 175L81.46 105.18L105.03 105.18C121.39 105.18 128.78 114.25 128.78 126.6C128.78 135.85 124.6 143.12 115.72 146.14L131.5 175L121.68 175L106.96 147.69C106.37 147.71 105.78 147.71 105.18 147.71L89.89 147.71L89.89 175ZM185.5 175L142.82 175L142.82 105.18L184.96 105.18L184.96 112.68L151.26 112.68L151.26 136.28L182.76 136.28L182.76 143.78L151.26 143.78L151.26 167.5L185.5 167.5L185.5 175ZM210.12 155.21L203.09 175L194.23 175L219.87 105.18L228.59 105.18L254.23 175L245.37 175L238.34 155.21L210.12 155.21ZM265.14 175L265.14 105.18L275.22 105.18L298.96 163.14L299.78 163.14L323.5 105.18L333.58 105.18L333.58 175L325.68 175L325.68 121.96L325 121.96L303.18 175L295.54 175L273.72 121.96L273.04 121.96L273.04 175L265.14 175ZM20.89 112.68L20.89 167.5L33.46 167.5C50.78 167.5 59.1 157 59.1 139.96C59.1 123.03 50.78 112.68 34.39 112.68L20.89 112.68ZM89.89 112.68L89.89 140.1L104.89 140.1C116.1 140.1 120.46 134.96 120.46 126.6C120.46 118.21 116.1 112.68 104.78 112.68L89.89 112.68ZM223.95 116.21L212.77 147.71L235.67 147.71L224.49 116.21L223.95 116.21Z" fill="#FFFFFF" fill-opacity="1.000000" fill-rule="evenodd"/>
	</g>
</svg>
