<svg width="13.000000" height="12.000000" viewBox="0 0 13 12" fill="none" xmlns="http://www.w3.org/2000/svg" xmlns:xlink="http://www.w3.org/1999/xlink">
	<desc>
			Created with Pixso.
	</desc>
	<defs/>
	<path d="M12.28 9.35C12.28 9.29 12.28 9.23 12.25 9.16C12.19 8.98 11.75 8.78 11.57 8.69C11.06 8.41 10.55 8.13 10.05 7.83C9.81 7.69 9.53 7.42 9.25 7.42C8.71 7.42 7.91 9.04 7.43 9.04C7.19 9.04 6.88 8.82 6.66 8.69C5.04 7.79 3.91 6.66 3.01 5.04C2.88 4.83 2.66 4.51 2.66 4.27C2.66 3.79 4.28 3 4.28 2.45C4.28 2.17 4.01 1.89 3.87 1.66C3.57 1.16 3.3 0.64 3.01 0.13C2.92 -0.05 2.72 -0.49 2.54 -0.55C2.47 -0.58 2.41 -0.58 2.35 -0.58C2.03 -0.58 1.4 -0.43 1.11 -0.3C0.67 -0.11 0.38 0.39 0.16 0.79C-0.12 1.32 -0.29 1.85 -0.29 2.45C-0.29 3.28 0.05 4.03 0.32 4.79C0.52 5.33 0.76 5.86 1.06 6.35C2 7.87 3.83 9.7 5.35 10.64C5.84 10.94 6.37 11.18 6.91 11.38C7.67 11.66 8.42 12 9.25 12C9.85 12 10.38 11.83 10.91 11.54C11.31 11.32 11.81 11.03 12 10.59C12.13 10.3 12.28 9.67 12.28 9.35Z" fill="#FFFFFF" fill-opacity="1.000000" fill-rule="nonzero"/>
</svg>
