<svg width="44.000000" height="44.000000" viewBox="0 0 44 44" fill="none" xmlns="http://www.w3.org/2000/svg" xmlns:xlink="http://www.w3.org/1999/xlink">
	<desc>
			Created with Pixso.
	</desc>
	<defs/>
	<path id="Vector 1" d="M15 12L15 33L35 22.5L15 12Z" fill="#F5F4F4" fill-opacity="1.000000" fill-rule="evenodd"/>
	<path id="Ellipse 76 (Граница)" d="M0 22C0 9.84973 9.84985 0 22 0C34.1501 0 44 9.84973 44 22C44 34.1503 34.1501 44 22 44C9.84985 44 0 34.1503 0 22ZM1 22C1 10.402 10.4021 1 22 1C33.5979 1 43 10.402 43 22C43 33.598 33.5979 43 22 43C10.4021 43 1 33.598 1 22Z" fill="#FFFFFF" fill-opacity="1.000000" fill-rule="evenodd"/>
</svg>
